<?xml version="1.0" encoding="utf-8"?>
<!-- Generator: Adobe Illustrator 16.0.0, SVG Export Plug-In . SVG Version: 6.00 Build 0)  -->
<!DOCTYPE svg PUBLIC "-//W3C//DTD SVG 1.1//EN" "http://www.w3.org/Graphics/SVG/1.1/DTD/svg11.dtd">
<svg version="1.1" id="Layer_1" xmlns="http://www.w3.org/2000/svg" xmlns:xlink="http://www.w3.org/1999/xlink" x="0px" y="0px"
	 width="576px" height="576px" viewBox="0 0 576 576" enable-background="new 0 0 576 576" xml:space="preserve">
<g>
	<defs>
		<rect id="SVGID_1_" width="576" height="576"/>
	</defs>
	<clipPath id="SVGID_2_">
		<use xlink:href="#SVGID_1_"  overflow="visible"/>
	</clipPath>
	<path clip-path="url(#SVGID_2_)" fill="#114684" d="M290.98,101.387c-49.975,0-90.487,40.513-90.487,90.487
		c0,40.323,26.382,74.471,62.821,86.162L262.2,157.03c2.497-0.236,5.222-0.475,8.17-0.719c2.947-0.24,6.006-0.455,9.177-0.645
		c3.169-0.188,6.343-0.322,9.514-0.405c3.171-0.081,6.233-0.136,9.183-0.161c7.236-0.063,13.523,0.882,18.856,2.831
		c1.606,0.587,3.103,1.277,4.544,2.017c3.871,1.814,7.204,4.126,9.957,6.974c3.519,3.639,6.147,8.063,7.892,13.279
		c1.741,5.217,2.644,11.116,2.699,17.693c0.061,6.905-0.822,13.385-2.647,19.439c-1.824,6.056-4.659,11.366-8.507,15.929
		c-3.851,4.563-8.778,8.167-14.79,10.806c-6.008,2.641-13.167,3.999-21.479,4.07l-1.071,0.009l-0.085-0.622
		c-0.022,0-0.044,0.002-0.066,0.002l-1.071,0.009l-1.576-11.475l3.211-0.838c3.119-0.888,6.061-2.018,8.819-3.392
		c2.756-1.371,5.131-3.386,7.12-6.048c1.985-2.659,3.542-6.15,4.666-10.474c1.123-4.324,1.658-9.83,1.602-16.518
		c-0.088-10.032-2.027-17.322-5.82-21.874c-1.64-1.967-3.507-3.478-5.573-4.585c-2.403-1.05-5.068-1.575-8.006-1.55
		c-1.521,0.013-3.063,0.082-4.625,0.201c-1.563,0.122-3.192,0.351-4.887,0.691l1.021,109.846l0.007,0.776
		c0.849,0.024,1.693,0.065,2.549,0.065c49.975,0,90.486-40.513,90.486-90.487C381.467,141.9,340.955,101.387,290.98,101.387"/>
	<path clip-path="url(#SVGID_2_)" fill="#FFFFFF" d="M216.074,148.187l64.052-39.261l85.323,14.96l-35.468,14.689l1.89,18.651
		c0,0-8.442-7.568-50.667-1.874c-27.599,3.722-26.19,12.327-26.19,12.327l-0.231-15.691c0,0,6.623-9.639,17.858-12.606
		c0,0-15.154,5.532-23.029,11.825L216.074,148.187z"/>
	<path clip-path="url(#SVGID_2_)" fill="none" stroke="#FBB040" stroke-width="1.839" stroke-miterlimit="10" d="M216.074,148.187
		l64.052-39.261l85.323,14.96l-35.468,14.689l1.89,18.651c0,0-8.442-7.568-50.667-1.874c-27.599,3.722-26.19,12.327-26.19,12.327
		l-0.231-15.691c0,0,6.623-9.639,17.858-12.606c0,0-15.154,5.532-23.029,11.825L216.074,148.187z"/>
	<path clip-path="url(#SVGID_2_)" fill="#FBB040" d="M287.404,171.673c1.694-0.339,3.323-0.568,4.887-0.691
		c1.562-0.119,3.104-0.188,4.625-0.201c2.938-0.025,5.603,0.5,8.006,1.551c-2.713-1.453-5.78-2.192-9.229-2.162
		c-1.522,0.012-3.063,0.081-4.625,0.2c-1.563,0.123-3.193,0.352-4.887,0.692l1.029,110.85l0.004,0.353
		c0.404,0.016,0.812,0.019,1.217,0.031l-0.008-0.776L287.404,171.673z"/>
	<path clip-path="url(#SVGID_2_)" fill="#FFFFFF" d="M287.21,281.912l-1.029-110.85c1.694-0.339,3.323-0.569,4.887-0.692
		c1.561-0.119,3.102-0.187,4.625-0.2c3.448-0.03,6.516,0.709,9.229,2.162c2.066,1.107,3.934,2.617,5.573,4.584
		c3.793,4.553,5.732,11.843,5.82,21.874c0.057,6.688-0.479,12.195-1.603,16.518c-1.123,4.324-2.68,7.815-4.666,10.475
		c-1.988,2.661-4.363,4.677-7.119,6.048c-2.76,1.374-5.7,2.504-8.819,3.392l-3.211,0.837l1.576,11.476l1.07-0.01
		c0.023,0,0.044-0.001,0.067-0.002c8.283-0.078,15.421-1.434,21.413-4.068c6.011-2.64,10.938-6.242,14.789-10.806
		c3.849-4.563,6.684-9.872,8.508-15.928c1.825-6.055,2.708-12.535,2.646-19.439c-0.056-6.578-0.958-12.476-2.698-17.694
		c-1.744-5.216-4.373-9.64-7.893-13.279c-2.457-2.541-5.387-4.645-8.733-6.362c-1.441-0.741-2.938-1.43-4.544-2.017
		c-5.333-1.95-11.62-2.894-18.856-2.832c-2.95,0.025-6.012,0.081-9.183,0.162c-3.171,0.083-6.345,0.216-9.514,0.404
		c-3.171,0.191-6.23,0.406-9.177,0.646c-2.948,0.244-5.673,0.482-8.17,0.719l1.115,121.006c7.581,2.432,15.595,3.889,23.899,4.229
		L287.21,281.912z"/>
	<path clip-path="url(#SVGID_2_)" fill="#FBB040" d="M338.27,179.589c1.74,5.217,2.643,11.116,2.698,17.693
		c0.062,6.905-0.821,13.385-2.646,19.439c-1.824,6.056-4.659,11.366-8.508,15.929c-3.85,4.564-8.778,8.166-14.789,10.806
		c-5.992,2.634-13.13,3.99-21.413,4.068l0.085,0.623l1.071-0.009c8.312-0.072,15.472-1.429,21.479-4.07
		c6.012-2.64,10.939-6.243,14.79-10.807c3.848-4.563,6.683-9.872,8.507-15.928c1.825-6.055,2.708-12.535,2.647-19.439
		c-0.056-6.577-0.958-12.476-2.699-17.694c-1.744-5.216-4.373-9.64-7.892-13.278c-2.753-2.849-6.086-5.161-9.957-6.975
		c3.347,1.718,6.277,3.822,8.734,6.363C333.896,169.949,336.525,174.374,338.27,179.589"/>
	<path clip-path="url(#SVGID_2_)" fill="#C79147" d="M137.552,342.359v-1.868c3.753,0,5.63-1.495,5.63-4.485V306.73
		c0-2.491-1.959-3.737-5.877-3.737v-1.931h10.331c1.361,0,2.423-0.01,3.186-0.031c0.763-0.021,1.443-0.041,2.042-0.061
		c0.597-0.021,1.196-0.041,1.794-0.063c0.598-0.021,1.412-0.031,2.444-0.031c9.238,0,13.857,4.028,13.857,12.084
		c0,1.578-0.278,3.052-0.835,4.422c-0.557,1.37-1.413,2.575-2.567,3.613c-1.155,1.038-2.62,1.848-4.393,2.429
		c-1.774,0.582-3.877,0.872-6.31,0.872c-1.32,0-2.609-0.052-3.866-0.155c-1.259-0.104-2.485-0.28-3.681-0.53v12.146
		c0,3.156,2.041,4.734,6.124,4.734v1.868H137.552z M151.905,302.993c-1.732,0-2.598,1.103-2.598,3.302v15.012
		c1.03,0.208,2.165,0.374,3.402,0.499c1.238,0.124,2.619,0.186,4.145,0.186c1.361,0,2.526-0.259,3.495-0.778
		c0.969-0.519,1.773-1.204,2.413-2.056c0.639-0.851,1.103-1.838,1.392-2.959c0.288-1.121,0.433-2.283,0.433-3.487
		c0-6.479-3.691-9.718-11.074-9.718H151.905z"/>
	<path clip-path="url(#SVGID_2_)" fill="#C79147" d="M199.106,343.294c-2.929,0-5.63-0.551-8.104-1.65
		c-2.475-1.101-4.609-2.616-6.403-4.548c-1.794-1.931-3.197-4.193-4.206-6.789c-1.012-2.595-1.516-5.366-1.516-8.315
		c0-2.74,0.474-5.408,1.423-8.004c0.948-2.595,2.309-4.899,4.083-6.914c1.772-2.014,3.906-3.633,6.403-4.858
		c2.494-1.225,5.268-1.837,8.32-1.837c3.01,0,5.785,0.529,8.321,1.589c2.536,1.058,4.722,2.532,6.557,4.422s3.269,4.122,4.3,6.695
		c1.03,2.575,1.546,5.378,1.546,8.409c0,2.658-0.494,5.294-1.484,7.91c-0.99,2.616-2.382,4.952-4.176,7.008
		c-1.794,2.057-3.97,3.717-6.527,4.982C205.086,342.66,202.241,343.294,199.106,343.294 M199.602,340.864
		c2.31,0,4.289-0.486,5.939-1.461c1.649-0.974,3.01-2.311,4.083-4.012c1.072-1.699,1.866-3.7,2.382-6.001
		c0.515-2.301,0.773-4.777,0.773-7.431c0-2.487-0.258-4.892-0.773-7.214c-0.516-2.32-1.33-4.384-2.444-6.188
		c-1.113-1.804-2.567-3.255-4.361-4.354c-1.794-1.098-3.97-1.647-6.527-1.647c-2.351,0-4.341,0.519-5.97,1.556
		c-1.629,1.036-2.949,2.425-3.959,4.166c-1.011,1.741-1.732,3.752-2.165,6.032c-0.433,2.281-0.65,4.664-0.65,7.15
		c0,2.736,0.268,5.287,0.804,7.649c0.536,2.363,1.362,4.416,2.475,6.157c1.114,1.742,2.537,3.109,4.268,4.104
		C195.209,340.367,197.25,340.864,199.602,340.864"/>
	<path clip-path="url(#SVGID_2_)" fill="#C79147" d="M252.742,313.645c-0.825-3.363-2.207-6.052-4.145-8.066
		c-1.939-2.014-4.33-3.021-7.176-3.021c-2.351,0-4.228,0.623-5.63,1.868c-1.402,1.246-2.103,2.825-2.103,4.734
		c0,1.495,0.505,2.793,1.515,3.893c1.011,1.102,2.526,2.087,4.548,2.959c2.515,1.08,4.804,1.983,6.866,2.71
		c2.063,0.727,3.826,1.567,5.29,2.522c1.463,0.955,2.598,2.159,3.402,3.612c0.805,1.454,1.207,3.426,1.207,5.917
		c0,1.537-0.238,3.053-0.711,4.548c-0.475,1.494-1.207,2.834-2.197,4.018c-0.99,1.183-2.279,2.139-3.866,2.865
		c-1.588,0.726-3.496,1.09-5.723,1.09c-1.444,0-2.691-0.104-3.742-0.312c-1.052-0.208-1.94-0.458-2.66-0.748
		c-0.723-0.29-1.29-0.581-1.702-0.872c-0.413-0.29-0.702-0.498-0.866-0.622c-0.784,0.582-1.568,1.101-2.351,1.557
		c-0.784,0.457-1.568,0.788-2.351,0.997c-0.454-3.155-0.794-5.948-1.021-8.379c-0.227-2.429-0.34-4.556-0.34-6.384h2.042
		c0,1.828,0.371,3.499,1.113,5.015c0.743,1.516,1.691,2.813,2.846,3.893c1.154,1.08,2.453,1.921,3.898,2.522
		c1.443,0.603,2.845,0.903,4.206,0.903c0.866,0,1.825-0.145,2.877-0.435c1.052-0.29,2.042-0.747,2.969-1.368
		c0.929-0.622,1.711-1.41,2.351-2.363c0.639-0.954,0.959-2.094,0.959-3.421c0-1.658-0.443-3.109-1.33-4.354
		c-0.887-1.244-2.3-2.218-4.237-2.924c-2.269-0.829-4.445-1.596-6.527-2.301c-2.083-0.704-3.919-1.543-5.506-2.519
		c-1.588-0.975-2.857-2.197-3.805-3.669c-0.949-1.471-1.423-3.41-1.423-5.815c0-1.741,0.31-3.316,0.928-4.726
		c0.619-1.409,1.454-2.623,2.506-3.64c1.052-1.016,2.278-1.803,3.681-2.362c1.401-0.56,2.866-0.841,4.392-0.841
		c1.773,0,3.289,0.322,4.547,0.966c1.258,0.645,2.422,1.215,3.496,1.713c1.277-1.037,2.618-1.766,4.021-2.18
		c0.577,1.91,0.989,3.935,1.237,6.073c0.247,2.139,0.371,4.453,0.371,6.944H252.742z"/>
	<path clip-path="url(#SVGID_2_)" fill="#C79147" d="M265.424,342.359v-1.868c3.918,0,5.877-1.435,5.877-4.305v-27.765
		c0-3.66-2.041-5.49-6.125-5.49v-1.869h17.941v1.869c-3.795,0-5.691,1.83-5.691,5.49v27.765c0,2.87,1.979,4.305,5.939,4.305v1.868
		H265.424z"/>
	<path clip-path="url(#SVGID_2_)" fill="#C79147" d="M297.53,342.359v-1.868c4.413,0,6.62-1.91,6.62-5.73v-28.714
		c0-1.537-1.012-2.306-3.031-2.306c-2.723,0-4.93,0.883-6.62,2.647c-1.691,1.765-2.948,4.433-3.773,8.004l-1.918-0.499l1.671-13.267
		c0.948,0.124,1.845,0.229,2.69,0.312c0.845,0.083,1.66,0.124,2.444,0.124h23.817c0.866,0,1.752-0.041,2.66-0.124
		c0.906-0.083,1.836-0.188,2.784-0.312v13.018l-1.671,0.249c-0.493-6.643-3.776-9.966-9.851-9.966c-2.053,0-3.079,0.707-3.079,2.119
		v28.714c0,3.82,2.228,5.73,6.682,5.73v1.868H297.53z"/>
	<path clip-path="url(#SVGID_2_)" fill="#C79147" d="M331.741,342.359v-1.868c3.918,0,5.877-1.435,5.877-4.305v-27.765
		c0-3.66-2.041-5.49-6.124-5.49v-1.869h17.94v1.869c-3.795,0-5.691,1.83-5.691,5.49v27.765c0,2.87,1.979,4.305,5.938,4.305v1.868
		H331.741z"/>
	<path clip-path="url(#SVGID_2_)" fill="#C79147" d="M374.365,342.856l-14.167-35.933c-1.197-2.661-2.991-3.992-5.383-3.992v-1.869
		h16.704v1.869h-2.846c-1.403,0-2.104,0.395-2.104,1.186c0,0.374,0.04,0.791,0.123,1.248c0.083,0.458,0.186,0.979,0.31,1.561
		l10.394,28.084l9.713-26.837c0.123-0.748,0.186-1.476,0.186-2.184c0-2.038-1.878-3.058-5.63-3.058v-1.869h14.847v1.869h-1.918
		c-1.443,0-2.536,1.103-3.278,3.306l-14.847,37.056L374.365,342.856z"/>
	<path clip-path="url(#SVGID_2_)" fill="#C79147" d="M402.574,342.359v-1.868c3.794,0,5.691-1.353,5.691-4.056v-28.264
		c0-3.493-2.041-5.24-6.124-5.24v-1.869h32.54l0.495,11.648l-1.918,0.249c-0.372-2.242-0.928-3.986-1.67-5.232
		c-0.743-1.246-1.64-2.169-2.691-2.771c-1.053-0.602-2.259-0.955-3.619-1.06c-1.361-0.102-2.846-0.155-4.454-0.155h-1.732
		c-3.135,0-4.701,0.935-4.701,2.804v11.148c0,1.246,0.495,1.869,1.484,1.869h2.104c1.03,0,1.989-0.052,2.877-0.156
		c0.886-0.103,1.67-0.374,2.351-0.81c0.68-0.436,1.237-1.1,1.67-1.993c0.434-0.893,0.732-2.107,0.897-3.644h2.289v16.132h-2.289
		c-0.165-1.535-0.413-2.75-0.742-3.644c-0.331-0.893-0.805-1.577-1.423-2.056c-0.619-0.477-1.383-0.788-2.289-0.934
		c-0.908-0.146-2.021-0.219-3.341-0.219h-0.742c-1.897,0-2.846,0.686-2.846,2.057v11.896c0,2.366,1.648,3.55,4.949,3.55h1.918
		c2.598,0,4.69-0.196,6.278-0.592c1.588-0.394,2.877-1.017,3.867-1.868c0.989-0.851,1.783-1.921,2.382-3.208
		c0.597-1.287,1.206-2.803,1.824-4.547l1.671,0.498l-1.671,12.333H402.574z"/>
	<path clip-path="url(#SVGID_2_)" fill="#C79147" d="M123.167,411.251v-1.868c3.753,0,5.63-1.495,5.63-4.485v-29.275
		c0-2.491-1.959-3.737-5.877-3.737v-1.931h10.331c1.361,0,2.423-0.01,3.186-0.031c0.763-0.021,1.443-0.041,2.042-0.062
		c0.597-0.021,1.196-0.041,1.794-0.062c0.598-0.02,1.412-0.031,2.444-0.031c9.238,0,13.857,4.028,13.857,12.084
		c0,1.578-0.278,3.053-0.835,4.422c-0.557,1.37-1.413,2.575-2.567,3.613c-1.155,1.038-2.62,1.848-4.393,2.429
		c-1.774,0.582-3.877,0.872-6.31,0.872c-1.32,0-2.609-0.052-3.866-0.155c-1.259-0.104-2.485-0.28-3.681-0.53v12.146
		c0,3.156,2.041,4.734,6.124,4.734v1.868H123.167z M137.52,371.885c-1.732,0-2.598,1.102-2.598,3.302v15.012
		c1.03,0.208,2.165,0.374,3.402,0.499c1.238,0.123,2.619,0.186,4.145,0.186c1.361,0,2.526-0.259,3.495-0.778
		c0.969-0.519,1.773-1.204,2.413-2.056c0.639-0.851,1.103-1.838,1.392-2.959c0.288-1.121,0.433-2.283,0.433-3.487
		c0-6.479-3.691-9.718-11.074-9.718H137.52z"/>
	<path clip-path="url(#SVGID_2_)" fill="#C79147" d="M181.629,411.251v-1.868c0.577-0.083,1.185-0.166,1.825-0.25
		c0.639-0.082,1.216-0.187,1.732-0.312c0.516-0.124,0.949-0.28,1.299-0.467c0.35-0.187,0.526-0.405,0.526-0.655
		c-0.041-0.164-0.072-0.403-0.093-0.715s-0.134-0.695-0.34-1.152l-2.784-7.661c-0.454-1.08-1.712-1.62-3.774-1.62h-9.217
		c-1.568,0-2.516,0.537-2.846,1.612l-2.103,6.445c-0.166,0.372-0.248,0.909-0.248,1.612c0,1.9,1.815,2.851,5.444,2.851v2.18h-13.919
		v-2.18c1.196-0.083,2.217-0.498,3.062-1.244c0.845-0.745,1.556-1.824,2.135-3.234l14.847-35.573l1.856,0.748l14.661,36.999
		c0.577,0.872,1.031,1.412,1.362,1.619c0.082,0.084,0.422,0.197,1.02,0.343c0.598,0.146,1.433,0.364,2.506,0.654v1.868H181.629z
		 M176.248,377.803l-5.444,13.08c-0.454,0.997-0.681,1.703-0.681,2.118c0,0.623,0.763,0.934,2.289,0.934h7.795
		c1.237,0,1.856-0.249,1.856-0.747c0-0.207-0.227-0.893-0.68-2.056L176.248,377.803z"/>
	<path clip-path="url(#SVGID_2_)" fill="#C79147" d="M206.004,411.251v-1.868c4.413,0,6.619-1.91,6.619-5.73v-28.714
		c0-1.537-1.011-2.306-3.031-2.306c-2.722,0-4.929,0.883-6.619,2.647c-1.692,1.765-2.949,4.433-3.774,8.004l-1.918-0.499
		l1.67-13.267c0.949,0.124,1.845,0.229,2.692,0.312c0.844,0.083,1.659,0.124,2.443,0.124h23.818c0.866,0,1.752-0.041,2.66-0.124
		c0.907-0.083,1.835-0.188,2.784-0.312v13.018l-1.671,0.249c-0.492-6.643-3.776-9.966-9.85-9.966c-2.053,0-3.079,0.707-3.079,2.119
		v28.714c0,3.82,2.227,5.73,6.681,5.73v1.868H206.004z"/>
	<path clip-path="url(#SVGID_2_)" fill="#C79147" d="M266.568,411.251v-1.868c4.083,0,6.125-1.433,6.125-4.298v-13.019
		c-0.743-0.623-2.311-0.935-4.702-0.935h-11.135c-0.826,0-1.609,0.073-2.351,0.219c-0.743,0.146-1.444,0.384-2.104,0.716v13.019
		c0,2.865,1.897,4.298,5.692,4.298v1.868h-18.127v-1.868c4.207,0,6.311-1.435,6.311-4.305v-27.765c0-3.66-2.104-5.49-6.311-5.49
		v-1.869h18.127v1.869c-3.795,0-5.692,1.834-5.692,5.501v10.69c1.361,0.46,2.846,0.688,4.455,0.688h11.135
		c2.309,0,3.876-0.229,4.702-0.688v-10.69c0-3.667-2.042-5.501-6.125-5.501v-1.869h17.879v1.869c-3.754,0-5.629,1.83-5.629,5.49
		v27.765c0,2.87,1.875,4.305,5.629,4.305v1.868H266.568z"/>
	<path clip-path="url(#SVGID_2_)" fill="#C79147" d="M328.679,412.186l-9.65-27.78l-8.723,27.531l-2.352,0.249l-12.991-36.37
		c-1.196-2.661-2.764-3.992-4.701-3.992v-1.869h15.527v1.869c-1.855,0-3.104,0.197-3.742,0.592
		c-0.641,0.396-0.959,0.989-0.959,1.779c0,0.209,0.051,0.448,0.154,0.719c0.103,0.271,0.217,0.571,0.34,0.904l8.91,26.651
		l7.36-22.096l-2.412-6.429c-0.248-0.706-0.723-1.237-1.423-1.591c-0.702-0.354-1.712-0.53-3.032-0.53v-1.869h16.023v1.869
		c-3.053,0-4.578,0.854-4.578,2.559c0,0.167,0.041,0.416,0.124,0.749l8.97,27.338l7.485-24.218c0.206-0.582,0.33-1.122,0.372-1.622
		c0.04-0.499,0.062-0.999,0.062-1.498c0-2.205-1.712-3.308-5.135-3.308v-1.869h13.425v1.869c-2.517,0-4.393,2.06-5.63,6.175
		l-11.074,33.938L328.679,412.186z"/>
	<path clip-path="url(#SVGID_2_)" fill="#C79147" d="M366.54,411.251v-1.868c0.577-0.083,1.185-0.166,1.824-0.25
		c0.64-0.082,1.217-0.187,1.731-0.312c0.517-0.124,0.949-0.28,1.301-0.467c0.35-0.187,0.525-0.405,0.525-0.655
		c-0.042-0.164-0.072-0.403-0.093-0.715c-0.021-0.312-0.135-0.695-0.34-1.152l-2.784-7.661c-0.454-1.08-1.712-1.62-3.773-1.62
		h-9.218c-1.568,0-2.517,0.537-2.846,1.612l-2.104,6.445c-0.165,0.372-0.248,0.909-0.248,1.612c0,1.9,1.814,2.851,5.444,2.851v2.18
		h-13.919v-2.18c1.195-0.083,2.216-0.498,3.062-1.244c0.845-0.745,1.557-1.824,2.135-3.234l14.848-35.573l1.855,0.748l14.662,36.999
		c0.576,0.872,1.03,1.412,1.36,1.619c0.083,0.084,0.422,0.197,1.021,0.343c0.597,0.146,1.433,0.364,2.505,0.654v1.868H366.54z
		 M361.157,377.803l-5.443,13.08c-0.455,0.997-0.681,1.703-0.681,2.118c0,0.623,0.763,0.934,2.289,0.934h7.795
		c1.237,0,1.855-0.249,1.855-0.747c0-0.207-0.227-0.893-0.681-2.056L361.157,377.803z"/>
	<path clip-path="url(#SVGID_2_)" fill="#C79147" d="M388.748,411.251v-1.868c4.207,0,6.311-0.957,6.311-2.87v-12.167
		l-10.332-17.282c-2.103-3.493-4.371-5.24-6.805-5.24v-1.869h16.888v1.869c-2.968,0-4.454,0.708-4.454,2.124
		c0,0.334,0.082,0.646,0.248,0.938c0.165,0.292,0.412,0.708,0.743,1.249l8.723,14.748l7.98-14.498
		c0.124-0.417,0.227-0.854,0.31-1.312c0.082-0.457,0.123-0.915,0.123-1.375c0-1.249-1.649-1.874-4.948-1.874v-1.869h14.352v1.869
		c-2.145,0-3.773,0.79-4.887,2.37l-11.568,19.966v12.604c0,1.747,2.041,2.62,6.124,2.62v1.868H388.748z"/>
	<path clip-path="url(#SVGID_2_)" fill="#C79147" d="M447.086,382.536c-0.825-3.363-2.207-6.052-4.146-8.066
		c-1.938-2.014-4.33-3.021-7.176-3.021c-2.351,0-4.228,0.623-5.629,1.868c-1.404,1.246-2.104,2.825-2.104,4.734
		c0,1.495,0.504,2.793,1.516,3.893c1.01,1.102,2.525,2.087,4.547,2.959c2.515,1.08,4.803,1.983,6.867,2.71
		c2.062,0.727,3.824,1.567,5.289,2.522c1.463,0.955,2.599,2.159,3.402,3.612c0.805,1.454,1.206,3.426,1.206,5.917
		c0,1.537-0.237,3.053-0.711,4.548c-0.475,1.494-1.207,2.834-2.196,4.018c-0.99,1.183-2.279,2.139-3.866,2.865
		c-1.589,0.726-3.496,1.09-5.723,1.09c-1.444,0-2.691-0.104-3.743-0.312c-1.052-0.208-1.938-0.458-2.66-0.748
		s-1.289-0.581-1.701-0.872c-0.412-0.29-0.701-0.498-0.866-0.622c-0.783,0.582-1.567,1.101-2.351,1.557
		c-0.784,0.457-1.567,0.788-2.352,0.997c-0.453-3.155-0.794-5.948-1.02-8.379c-0.228-2.429-0.341-4.556-0.341-6.384h2.042
		c0,1.828,0.371,3.499,1.113,5.015s1.69,2.813,2.846,3.893c1.154,1.08,2.453,1.921,3.897,2.522c1.443,0.603,2.846,0.903,4.207,0.903
		c0.866,0,1.824-0.145,2.876-0.435s2.042-0.747,2.97-1.368c0.928-0.622,1.711-1.41,2.351-2.363c0.64-0.954,0.959-2.094,0.959-3.421
		c0-1.658-0.443-3.109-1.33-4.354s-2.299-2.218-4.237-2.925c-2.269-0.828-4.444-1.595-6.526-2.3
		c-2.083-0.704-3.919-1.543-5.506-2.519c-1.589-0.975-2.856-2.197-3.805-3.669c-0.949-1.472-1.423-3.41-1.423-5.815
		c0-1.741,0.309-3.316,0.927-4.726c0.619-1.409,1.455-2.623,2.506-3.64c1.052-1.016,2.278-1.803,3.682-2.362
		c1.401-0.56,2.866-0.841,4.392-0.841c1.773,0,3.289,0.322,4.547,0.966c1.258,0.645,2.423,1.215,3.496,1.713
		c1.277-1.037,2.618-1.765,4.021-2.18c0.577,1.91,0.99,3.935,1.237,6.073c0.248,2.139,0.371,4.453,0.371,6.944H447.086z"/>
	<path clip-path="url(#SVGID_2_)" fill="#FFFFFF" d="M233.749,172.912c0.387-0.602,0.628-1.403,0.628-2.292
		c0-1.423-0.609-2.633-1.468-3.124l-0.416-28.259l-1.441,0.944l0.022,27.412c-0.779,0.541-1.322,1.688-1.322,3.027
		c0,0.931,0.261,1.773,0.681,2.382c-0.612,3.873-1.094,11.059-1.235,13.308c-0.026,0.412,0.231,0.778,0.623,0.907l4.634,1.518
		c0.619,0.203,1.245-0.287,1.185-0.937C235.347,184.657,234.572,176.9,233.749,172.912"/>
	<path clip-path="url(#SVGID_2_)" fill="none" stroke="#FBB040" stroke-width="1.834" stroke-miterlimit="10" d="M233.749,172.912
		c0.387-0.602,0.628-1.403,0.628-2.292c0-1.423-0.609-2.633-1.468-3.124l-0.416-28.259l-1.441,0.944l0.022,27.412
		c-0.779,0.541-1.322,1.688-1.322,3.027c0,0.931,0.261,1.773,0.681,2.382c-0.612,3.873-1.094,11.059-1.235,13.308
		c-0.026,0.412,0.231,0.778,0.623,0.907l4.634,1.518c0.619,0.203,1.245-0.287,1.185-0.937
		C235.347,184.657,234.572,176.9,233.749,172.912z"/>
	<path clip-path="url(#SVGID_2_)" fill="#FFFFFF" d="M215.704,147.574l63.669-39.26l84.854,14.961l-35.273,14.688l2.698,18.229
		c0,0-9.212-7.382-51.205-1.452c-30.194,4.263-26.046,12.326-26.046,12.326l-0.23-15.69c0,0,6.587-9.64,17.76-12.606
		c0,0-15.071,5.531-22.903,11.825L215.704,147.574z"/>
	<path clip-path="url(#SVGID_2_)" fill="#FFFFFF" d="M233.603,172.3c0.387-0.601,0.628-1.403,0.628-2.292
		c0-1.423-0.609-2.632-1.468-3.124l-0.416-28.259l-1.442,0.945l0.023,27.411c-0.779,0.541-1.322,1.688-1.322,3.027
		c0,0.931,0.26,1.773,0.68,2.382c-0.612,3.873-1.093,11.059-1.234,13.308c-0.026,0.412,0.231,0.779,0.623,0.907l4.633,1.518
		c0.62,0.203,1.246-0.287,1.186-0.937C235.201,184.045,234.426,176.289,233.603,172.3"/>
	<path clip-path="url(#SVGID_2_)" fill="#6B727B" d="M156.729,456.964c0-4.311-8.495-3.276-8.495-8.848
		c0-2.622,2.193-4.613,5.268-4.613c1.715,0,3.227,0.454,4.336,1.312l-0.932,1.234c-1.009-0.756-2.118-1.108-3.479-1.108
		c-2.294,0-3.655,1.285-3.655,3.101c0,4.411,8.495,3.428,8.495,8.848c0,2.672-2.092,4.789-5.697,4.789
		c-2.47,0-4.235-0.807-5.369-1.765l0.932-1.21c1.034,0.807,2.42,1.538,4.538,1.538C155.292,460.241,156.729,458.805,156.729,456.964
		"/>
	<path clip-path="url(#SVGID_2_)" fill="#6B727B" d="M163.564,447.839h1.462v8.924c0,2.42,1.034,3.579,3.277,3.579
		c2.017,0,3.706-1.084,3.706-3.73v-8.772h1.462v13.587h-1.084l-0.328-1.462h-0.1c-0.278,0.403-1.539,1.739-3.958,1.739
		c-2.748,0-4.361-1.462-4.437-4.511V447.839z"/>
	<path clip-path="url(#SVGID_2_)" fill="#6B727B" d="M184.643,447.638c2.167,0,3.277,0.882,3.655,1.26l-0.983,1.185
		c-0.655-0.63-1.487-1.084-2.798-1.084c-2.37,0-3.983,1.589-3.983,5.622c0,4.134,1.563,5.646,3.983,5.646
		c1.285,0,2.143-0.379,2.748-1.009l0.882,1.135c-0.479,0.504-1.588,1.234-3.756,1.234c-3.202,0-5.37-1.89-5.37-6.78
		C179.021,449.805,181.44,447.638,184.643,447.638"/>
	<path clip-path="url(#SVGID_2_)" fill="#6B727B" d="M198.208,447.638c2.167,0,3.277,0.882,3.655,1.26l-0.983,1.185
		c-0.655-0.63-1.487-1.084-2.798-1.084c-2.37,0-3.983,1.589-3.983,5.622c0,4.134,1.563,5.646,3.983,5.646
		c1.285,0,2.143-0.379,2.748-1.009l0.881,1.135c-0.478,0.504-1.587,1.234-3.755,1.234c-3.202,0-5.37-1.89-5.37-6.78
		C192.586,449.805,195.006,447.638,198.208,447.638"/>
	<path clip-path="url(#SVGID_2_)" fill="#6B727B" d="M216.059,460.442c-0.857,0.605-2.319,1.135-4.083,1.135
		c-3.756,0-5.823-1.865-5.823-7.008c0-5.066,2.823-6.932,5.596-6.932c3.151,0,4.789,2.066,4.789,5.268
		c0,0.655-0.05,1.513-0.126,2.319h-8.772c0.202,3.681,1.714,4.991,4.538,4.991c1.336,0,2.596-0.504,3.201-0.983L216.059,460.442z
		 M207.64,453.863h7.386c0.025-0.353,0.025-0.705,0.025-0.907c0-2.521-1.084-3.958-3.478-3.958
		C209.758,448.998,207.842,450.107,207.64,453.863"/>
	<path clip-path="url(#SVGID_2_)" fill="#6B727B" d="M221.811,451.292c0-1.891,1.588-3.654,4.538-3.654
		c1.386,0,2.873,0.479,3.705,1.311l-0.958,1.109c-0.681-0.706-1.815-1.06-2.798-1.06c-2.143,0-3.025,1.06-3.025,2.27
		c0,3.353,6.982,1.966,6.982,6.604c0,1.891-1.613,3.781-4.688,3.781c-2.067,0-3.706-0.756-4.613-1.639l0.958-1.16
		c0.882,0.884,2.168,1.438,3.731,1.438c2.092,0,3.15-1.108,3.15-2.42C228.792,454.494,221.811,455.905,221.811,451.292"/>
	<path clip-path="url(#SVGID_2_)" fill="#6B727B" d="M235.502,451.292c0-1.891,1.588-3.654,4.538-3.654
		c1.386,0,2.873,0.479,3.705,1.311l-0.958,1.109c-0.681-0.706-1.815-1.06-2.798-1.06c-2.143,0-3.025,1.06-3.025,2.27
		c0,3.353,6.982,1.966,6.982,6.604c0,1.891-1.613,3.781-4.688,3.781c-2.067,0-3.706-0.756-4.613-1.639l0.958-1.16
		c0.882,0.884,2.168,1.438,3.731,1.438c2.092,0,3.15-1.108,3.15-2.42C242.484,454.494,235.502,455.905,235.502,451.292"/>
	<path clip-path="url(#SVGID_2_)" fill="#6B727B" d="M262.808,460.141c0.378-1.487,0.756-2.949,1.135-4.438l3.025-11.948h2.47
		l3.1,12.1c0.378,1.438,0.731,2.849,1.109,4.286h0.101c0.378-1.412,0.731-2.849,1.109-4.261l3.126-12.125h1.512l-4.562,17.671h-2.47
		l-3.126-12.226c-0.378-1.437-0.731-2.849-1.109-4.285h-0.101c-0.353,1.437-0.731,2.873-1.084,4.311l-3.1,12.2h-2.471l-4.562-17.671
		h1.537l3.101,11.948c0.378,1.488,0.781,2.95,1.159,4.438H262.808z"/>
	<path clip-path="url(#SVGID_2_)" fill="#6B727B" d="M285.249,442.545c0.706,0,1.235,0.529,1.235,1.235
		c0,0.681-0.529,1.21-1.235,1.21c-0.681,0-1.21-0.529-1.21-1.21C284.039,443.074,284.568,442.545,285.249,442.545 M284.644,447.839
		h1.462v13.587h-1.462V447.839z"/>
	<path clip-path="url(#SVGID_2_)" fill="#6B727B" d="M293.419,458.022V449.1h-2.092v-0.958l2.092-0.303l0.403-3.604h1.059v3.604
		h3.832v1.261h-3.832v8.747c0,1.688,0.832,2.369,2.118,2.369c1.26,0,1.84-0.277,2.143-0.454l0.429,1.235
		c-0.529,0.277-1.387,0.555-2.823,0.555C294.528,461.552,293.419,460.367,293.419,458.022"/>
	<path clip-path="url(#SVGID_2_)" fill="#6B727B" d="M314.219,451.973v9.453h-1.462v-9.251c0-1.79-0.958-3.227-3-3.227
		c-2.143,0-3.504,1.361-3.982,2.646v9.831h-1.462v-19.133h1.462v7.108h0.101c0.303-0.403,1.538-1.814,4.032-1.814
		C312.505,447.587,314.219,449.275,314.219,451.973"/>
	<path clip-path="url(#SVGID_2_)" fill="#6B727B" d="M321.836,442.545c0.706,0,1.235,0.529,1.235,1.235
		c0,0.681-0.529,1.21-1.235,1.21c-0.681,0-1.21-0.529-1.21-1.21C320.626,443.074,321.155,442.545,321.836,442.545 M321.231,447.839
		h1.462v13.587h-1.462V447.839z"/>
	<path clip-path="url(#SVGID_2_)" fill="#6B727B" d="M339.458,461.426h-1.462v-8.999c0-2.243-1.135-3.479-3.201-3.479
		c-1.865,0-3.277,1.235-3.781,2.646v9.831h-1.462v-13.587h1.084l0.327,1.487h0.1c0.254-0.353,1.614-1.739,3.934-1.739
		c2.723,0,4.387,1.487,4.462,4.487V461.426z"/>
	<path clip-path="url(#SVGID_2_)" fill="#6B727B" d="M359.228,443.755c3.604,0,5.823,1.438,5.823,4.916
		c0,2.849-1.916,4.588-4.059,4.789v0.101c0.655,0.277,1.31,0.832,2.093,2.168l3.402,5.697h-1.814l-3.277-5.621
		c-0.757-1.286-1.639-1.916-3.051-1.916h-1.688v7.537h-1.512v-17.671H359.228z M356.656,452.502h2.496
		c2.546,0,4.336-0.982,4.336-3.654c0-2.697-1.589-3.681-4.513-3.681h-2.319V452.502z"/>
	<path clip-path="url(#SVGID_2_)" fill="#6B727B" d="M380.81,460.442c-0.857,0.605-2.318,1.135-4.083,1.135
		c-3.756,0-5.823-1.865-5.823-7.008c0-5.066,2.823-6.932,5.597-6.932c3.15,0,4.789,2.066,4.789,5.268
		c0,0.655-0.051,1.513-0.127,2.319h-8.771c0.202,3.681,1.714,4.991,4.537,4.991c1.336,0,2.597-0.504,3.201-0.983L380.81,460.442z
		 M372.391,453.863h7.386c0.025-0.353,0.025-0.705,0.025-0.907c0-2.521-1.084-3.958-3.479-3.958
		C374.508,448.998,372.593,450.107,372.391,453.863"/>
	<path clip-path="url(#SVGID_2_)" fill="#6B727B" d="M395.561,451.671v6.352c0,1.336,0.403,2.294,1.437,2.294h0.328v1.135
		c-0.075,0.025-0.252,0.05-0.403,0.05c-1.361,0-2.168-0.756-2.471-1.689h-0.101c-0.681,0.757-1.79,1.892-4.185,1.892
		c-2.495,0-3.907-1.765-3.907-3.555c0-2.975,3-4.462,7.94-4.411v-1.588c0-2.421-1.134-3.126-3.125-3.126
		c-1.967,0-2.874,1.059-3.303,1.689l-1.084-0.908c0.454-0.63,1.714-2.143,4.462-2.143
		C393.896,447.662,395.561,448.948,395.561,451.671 M394.199,454.998c-3.504-0.101-6.453,0.756-6.453,3.024
		c0,1.336,0.958,2.42,2.697,2.42s3.101-1.059,3.756-2.092V454.998z"/>
	<path clip-path="url(#SVGID_2_)" fill="#6B727B" d="M407.514,447.638c2.168,0,3.277,0.882,3.655,1.26l-0.983,1.185
		c-0.655-0.63-1.486-1.084-2.798-1.084c-2.369,0-3.982,1.589-3.982,5.622c0,4.134,1.562,5.646,3.982,5.646
		c1.286,0,2.143-0.379,2.748-1.009l0.882,1.135c-0.479,0.504-1.588,1.234-3.756,1.234c-3.201,0-5.369-1.89-5.369-6.78
		C401.893,449.805,404.312,447.638,407.514,447.638"/>
	<path clip-path="url(#SVGID_2_)" fill="#6B727B" d="M426.096,451.973v9.453h-1.462v-9.251c0-1.79-0.958-3.227-3-3.227
		c-2.142,0-3.504,1.361-3.982,2.646v9.831h-1.462v-19.133h1.462v7.108h0.101c0.303-0.403,1.538-1.814,4.033-1.814
		C424.382,447.587,426.096,449.275,426.096,451.973"/>
	
		<line clip-path="url(#SVGID_2_)" fill="none" stroke="#6B727B" stroke-width="1.261" stroke-linecap="round" stroke-miterlimit="10" x1="41.459" y1="429.343" x2="535.041" y2="429.343"/>
</g>
</svg>
