<?xml version="1.0" standalone="no"?>
<!DOCTYPE svg PUBLIC "-//W3C//DTD SVG 20010904//EN"
 "http://www.w3.org/TR/2001/REC-SVG-20010904/DTD/svg10.dtd">
<svg version="1.0" xmlns="http://www.w3.org/2000/svg"
 width="1500.000000pt" height="1191.000000pt" viewBox="0 0 1500.000000 1191.000000"
 preserveAspectRatio="xMidYMid meet">
<metadata>
Created by potrace 1.14, written by Peter Selinger 2001-2017
</metadata>
<g transform="translate(0.000000,1191.000000) scale(0.100000,-0.100000)"
fill="#000000" stroke="none">
<path d="M7278 10729 c-572 -60 -1065 -317 -1452 -754 -485 -548 -660 -1336
-456 -2057 164 -583 588 -1098 1125 -1366 140 -70 312 -139 322 -129 6 6 -24
2837 -30 2843 -17 17 -128 -80 -141 -124 -7 -22 -46 -37 -47 -19 0 7 -2 97 -5
200 l-6 189 43 50 c48 58 38 55 -74 -19 l-67 -45 -178 16 c-97 9 -187 16 -199
16 l-22 0 6 -197 c3 -109 10 -203 15 -210 17 -22 26 -72 18 -107 -4 -19 -4
-56 1 -83 22 -127 38 -316 28 -334 -13 -25 -48 -23 -124 5 l-60 22 1 99 c3
247 10 371 22 392 8 15 12 83 12 221 l0 200 -32 5 c-18 3 -100 11 -183 18 -82
7 -158 15 -169 19 -14 5 38 41 215 150 129 79 392 240 584 358 193 118 413
254 490 302 77 48 178 110 225 138 l85 52 515 -90 c283 -50 641 -113 795 -140
153 -27 280 -48 282 -46 1 1 -46 34 -105 74 -207 137 -497 259 -736 311 -211
46 -492 62 -698 40z"/>
<path d="M8790 9945 c-162 -68 -299 -125 -303 -127 -5 -2 2 -111 16 -243 13
-132 23 -242 21 -244 -2 -2 -15 6 -29 17 -38 30 -120 59 -222 77 -93 18 -447
27 -598 16 -77 -6 -75 -6 65 -13 273 -14 429 -60 621 -183 207 -134 337 -359
378 -660 16 -110 13 -359 -4 -473 -52 -346 -213 -621 -458 -779 -178 -116
-409 -183 -627 -183 -122 0 -115 -7 -134 133 -23 176 -31 158 77 191 155 47
251 97 321 168 70 72 113 148 149 264 38 120 51 229 50 429 0 145 -4 200 -21
280 -30 142 -84 247 -164 319 -91 83 -144 100 -298 101 -69 0 -147 -4 -174 -8
l-49 -9 7 -311 c3 -172 8 -676 11 -1122 3 -445 8 -915 11 -1044 l6 -234 147 6
c321 14 604 86 891 228 678 335 1134 985 1221 1738 15 137 7 485 -15 606 -39
215 -90 378 -175 565 -93 203 -232 414 -367 557 l-59 62 -295 -124z"/>
<path d="M1380 2710 c0 -7 2023 -10 6050 -10 4027 0 6050 3 6050 10 0 7 -2023
10 -6050 10 -4027 0 -6050 -3 -6050 -10z"/>
<path d="M7830 2160 c0 -198 2 -230 15 -230 13 0 15 20 15 121 0 67 5 129 11
141 15 28 74 51 111 43 45 -10 58 -52 58 -190 0 -70 4 -115 10 -115 6 0 10 53
10 139 l0 139 -31 26 c-38 32 -89 34 -135 5 l-34 -21 0 86 c0 70 -3 86 -15 86
-13 0 -15 -32 -15 -230z"/>
<path d="M10570 2159 c0 -180 3 -230 13 -227 8 3 13 43 17 133 5 122 6 129 30
146 41 31 81 34 113 9 l27 -21 0 -135 c0 -112 2 -134 15 -134 13 0 15 22 15
136 l0 136 -29 29 c-36 35 -90 39 -138 9 l-33 -20 0 85 c0 69 -3 85 -15 85
-13 0 -15 -32 -15 -231z"/>
<path d="M4063 2340 c-38 -23 -53 -48 -53 -89 0 -42 40 -83 120 -123 81 -42
101 -74 77 -124 -22 -45 -77 -62 -142 -44 -25 7 -48 17 -51 22 -6 10 -24 1
-24 -13 0 -17 67 -39 120 -39 73 0 112 23 131 80 18 51 -13 98 -92 140 -37 19
-76 44 -88 54 -29 27 -28 76 3 105 21 19 33 22 78 19 29 -2 59 -6 67 -9 29 -9
20 19 -10 30 -48 17 -100 13 -136 -9z"/>
<path d="M6726 2150 c30 -116 54 -213 54 -215 0 -3 13 -5 28 -5 28 0 28 0 76
193 27 105 52 198 56 205 5 10 24 -58 101 -360 8 -32 14 -38 37 -38 27 0 27 2
81 210 30 116 51 213 48 216 -14 15 -26 -18 -72 -200 -28 -108 -53 -196 -56
-196 -3 0 -21 57 -39 128 -61 237 -67 256 -82 266 -33 20 -43 -3 -92 -198 -28
-108 -52 -196 -55 -196 -4 0 -24 69 -45 153 -58 224 -65 247 -81 247 -10 0 0
-51 41 -210z"/>
<path d="M9080 2146 c0 -132 4 -216 10 -216 5 0 11 42 12 93 3 88 4 92 26 95
47 7 77 -17 127 -100 44 -71 68 -98 79 -87 6 6 -80 148 -103 173 l-21 22 34
12 c36 13 66 60 66 102 0 36 -29 86 -58 100 -15 7 -60 15 -99 18 l-73 5 0
-217z m177 149 c21 -24 24 -36 20 -69 -7 -50 -33 -73 -91 -81 -80 -12 -81 -12
-84 94 l-3 93 67 -4 c58 -4 70 -8 91 -33z"/>
<path d="M7570 2311 c0 -45 -10 -61 -36 -61 -13 0 -24 -4 -24 -10 0 -5 11 -10
24 -10 24 0 24 0 28 -129 4 -156 13 -174 87 -169 26 2 46 9 49 16 3 10 -4 12
-31 7 -28 -6 -39 -3 -56 14 -19 19 -21 33 -21 141 l0 120 45 0 c33 0 45 4 45
15 0 11 -12 15 -45 15 l-45 0 0 40 c0 22 -4 40 -10 40 -5 0 -10 -13 -10 -29z"/>
<path d="M4382 2127 c4 -153 14 -179 76 -198 34 -10 45 -8 86 10 40 17 48 18
53 6 16 -43 23 2 23 150 0 140 -2 165 -15 165 -13 0 -15 -21 -15 -127 0 -153
-9 -172 -83 -180 -39 -5 -49 -2 -71 20 -25 25 -26 30 -26 157 0 112 -2 130
-16 130 -14 0 -16 -16 -12 -133z"/>
<path d="M4830 2243 c-38 -26 -48 -43 -60 -100 -16 -76 1 -154 41 -188 24 -19
42 -25 79 -25 59 0 80 7 80 27 0 10 -6 13 -17 8 -76 -30 -136 -7 -154 58 -14
52 -6 140 16 173 23 36 62 48 108 34 46 -13 70 -3 36 16 -34 19 -100 17 -129
-3z"/>
<path d="M5499 2245 c-40 -22 -61 -62 -67 -130 -9 -114 30 -174 118 -183 51
-5 118 14 103 29 -5 5 -25 3 -46 -3 -74 -23 -147 25 -147 96 l0 26 105 0 105
0 0 50 c0 27 -5 61 -12 75 -23 50 -103 70 -159 40z m123 -33 c9 -9 20 -36 24
-59 l7 -43 -97 0 c-95 0 -96 0 -96 25 0 85 105 135 162 77z"/>
<path d="M5849 2237 c-69 -46 -45 -120 49 -151 55 -19 82 -42 82 -70 -1 -58
-76 -84 -142 -50 -18 10 -34 12 -40 6 -17 -17 24 -36 88 -40 60 -4 65 -3 94
26 18 19 30 41 30 57 0 33 -43 75 -96 94 -21 7 -47 20 -56 29 -22 19 -23 65
-2 83 18 15 75 17 117 5 35 -10 36 7 2 22 -40 18 -89 14 -126 -11z"/>
<path d="M6188 2243 c-39 -24 -52 -62 -36 -98 9 -21 32 -37 84 -61 76 -34 94
-57 74 -93 -22 -42 -81 -53 -134 -26 -33 17 -56 6 -31 -15 18 -15 94 -25 129
-16 55 14 86 86 54 129 -7 9 -43 29 -80 46 -68 30 -85 52 -73 90 9 30 67 45
111 31 38 -13 55 -7 36 12 -20 20 -104 21 -134 1z"/>
<path d="M8450 2095 c0 -140 2 -165 15 -165 13 0 15 21 15 128 0 125 1 129 26
153 35 33 98 33 125 0 16 -20 19 -41 19 -152 0 -108 2 -129 15 -129 22 0 22
238 0 280 -28 54 -93 66 -153 30 -40 -25 -42 -25 -42 0 0 11 -4 20 -10 20 -6
0 -10 -62 -10 -165z"/>
<path d="M9534 2244 c-40 -19 -64 -63 -71 -127 -11 -113 30 -177 119 -185 56
-4 108 10 108 29 0 8 -9 9 -27 3 -16 -5 -48 -8 -72 -7 -53 1 -89 32 -98 86
l-6 37 106 0 106 0 6 33 c8 42 -18 110 -50 131 -30 20 -81 20 -121 0z m119
-33 c10 -10 21 -37 24 -60 l6 -41 -97 0 c-93 0 -96 1 -96 23 0 31 35 86 63 97
30 13 78 4 100 -19z"/>
<path d="M9882 2240 c-46 -28 -31 -42 19 -17 35 17 46 18 79 8 40 -12 50 -29
50 -88 0 -31 -2 -33 -37 -33 -46 -1 -107 -22 -134 -46 -12 -11 -19 -30 -19
-54 0 -75 86 -108 163 -63 33 20 34 20 45 2 7 -11 21 -19 32 -19 25 0 26 12 1
27 -16 10 -19 27 -22 133 -4 119 -5 122 -32 146 -36 31 -98 32 -145 4z m148
-198 c0 -36 -5 -54 -20 -67 -25 -23 -99 -31 -122 -13 -24 18 -32 59 -16 81 16
22 81 46 126 47 32 0 32 0 32 -48z"/>
</g>
</svg>
